<svg version="1.2" xmlns="http://www.w3.org/2000/svg" xmlns:xlink="http://www.w3.org/1999/xlink" overflow="visible" preserveAspectRatio="none" viewBox="0 0 16.024839999999998 16.024839999999998" width="16.024839999999998" height="16.024839999999998"><g transform="translate(0, 0)"><g transform="translate(0.0000049999999997552, -0.0000049999999998801) rotate(0)"><path d="M15.87839,0.14645c0.19526,0.19526 0.19526,0.51184 0,0.70711l-15.02484,15.02484c-0.19526,0.19526 -0.51184,0.19526 -0.70711,0c-0.19526,-0.19526 -0.19526,-0.51184 0,-0.70711l15.02484,-15.02484c0.19526,-0.19526 0.51184,-0.19526 0.70711,0zM13.38215,4.09942c1.60366,1.28762 2.63027,2.90005 2.63027,3.9555c0,2 -3.68629,6 -8,6c-1.30384,0 -2.55037,-0.36543 -3.65511,-0.93062l1.62309,-1.62322c0.59552,0.35191 1.29019,0.55385 2.03201,0.55385c2.20914,0 4,-1.79086 4,-4c0,-0.74183 -0.20194,-1.43649 -0.55385,-2.03201zM8.01242,2.05492c1.30391,0 2.5505,0.36547 3.65527,0.93071l-1.62309,1.62324c-0.59556,-0.35197 -1.29028,-0.55394 -2.03218,-0.55394c-2.20914,0 -4,1.79086 -4,4c0,0.7419 0.20198,1.43662 0.55394,2.03218l-1.92351,1.92346c-1.60376,-1.28764 -2.63043,-2.90015 -2.63043,-3.95564c0,-2 3.68629,-6 8,-6zM9.94473,7.53691c0.04413,0.16519 0.06769,0.33885 0.06769,0.51801c0,1.10457 -0.89543,2 -2,2c-0.17915,0 -0.35281,-0.02356 -0.51803,-0.06774zM8.01242,6.05492c0.17922,0 0.35294,0.02357 0.51821,0.06779l-2.45043,2.45041c-0.04421,-0.16527 -0.06778,-0.33898 -0.06778,-0.51819c0,-1.10457 0.89543,-2 2,-2z" style="stroke-width: 0; stroke-linecap: butt; stroke-linejoin: miter; fill: rgb(160, 160, 160);" vector-effect="non-scaling-stroke"/></g><defs><path id="path-1617926008240131" d="M15.87839,0.14645c0.19526,0.19526 0.19526,0.51184 0,0.70711l-15.02484,15.02484c-0.19526,0.19526 -0.51184,0.19526 -0.70711,0c-0.19526,-0.19526 -0.19526,-0.51184 0,-0.70711l15.02484,-15.02484c0.19526,-0.19526 0.51184,-0.19526 0.70711,0zM13.38215,4.09942c1.60366,1.28762 2.63027,2.90005 2.63027,3.9555c0,2 -3.68629,6 -8,6c-1.30384,0 -2.55037,-0.36543 -3.65511,-0.93062l1.62309,-1.62322c0.59552,0.35191 1.29019,0.55385 2.03201,0.55385c2.20914,0 4,-1.79086 4,-4c0,-0.74183 -0.20194,-1.43649 -0.55385,-2.03201zM8.01242,2.05492c1.30391,0 2.5505,0.36547 3.65527,0.93071l-1.62309,1.62324c-0.59556,-0.35197 -1.29028,-0.55394 -2.03218,-0.55394c-2.20914,0 -4,1.79086 -4,4c0,0.7419 0.20198,1.43662 0.55394,2.03218l-1.92351,1.92346c-1.60376,-1.28764 -2.63043,-2.90015 -2.63043,-3.95564c0,-2 3.68629,-6 8,-6zM9.94473,7.53691c0.04413,0.16519 0.06769,0.33885 0.06769,0.51801c0,1.10457 -0.89543,2 -2,2c-0.17915,0 -0.35281,-0.02356 -0.51803,-0.06774zM8.01242,6.05492c0.17922,0 0.35294,0.02357 0.51821,0.06779l-2.45043,2.45041c-0.04421,-0.16527 -0.06778,-0.33898 -0.06778,-0.51819c0,-1.10457 0.89543,-2 2,-2z" vector-effect="non-scaling-stroke"/></defs></g></svg>
