<svg version="1.2" xmlns="http://www.w3.org/2000/svg" xmlns:xlink="http://www.w3.org/1999/xlink" overflow="visible" preserveAspectRatio="none" viewBox="0 0 16 12" width="16" height="12"><g transform="translate(0, 0)"><g transform="translate(0, 0) rotate(0)"><path d="M8,0c4.31371,0 8,4 8,6c0,2 -3.68629,6 -8,6c-4.31371,0 -8,-4 -8,-6c0,-2 3.68629,-6 8,-6zM8,2c-2.20914,0 -4,1.79086 -4,4c0,2.20914 1.79086,4 4,4c2.20914,0 4,-1.79086 4,-4c0,-2.20914 -1.79086,-4 -4,-4zM8,4c0.20503,0 0.40285,0.03085 0.58908,0.08817c-0.34736,0.15669 -0.58908,0.50603 -0.58908,0.91183c0,0.55228 0.44772,1 1,1c0.4058,0 0.75515,-0.24172 0.91192,-0.58902c0.05723,0.18617 0.08808,0.384 0.08808,0.58902c0,1.10457 -0.89543,2 -2,2c-1.10457,0 -2,-0.89543 -2,-2c0,-1.10457 0.89543,-2 2,-2z" style="stroke-width: 0; stroke-linecap: butt; stroke-linejoin: miter; fill: rgb(160, 160, 160);" vector-effect="non-scaling-stroke"/></g><defs><path id="path-1617926008239128" d="M8,0c4.31371,0 8,4 8,6c0,2 -3.68629,6 -8,6c-4.31371,0 -8,-4 -8,-6c0,-2 3.68629,-6 8,-6zM8,2c-2.20914,0 -4,1.79086 -4,4c0,2.20914 1.79086,4 4,4c2.20914,0 4,-1.79086 4,-4c0,-2.20914 -1.79086,-4 -4,-4zM8,4c0.20503,0 0.40285,0.03085 0.58908,0.08817c-0.34736,0.15669 -0.58908,0.50603 -0.58908,0.91183c0,0.55228 0.44772,1 1,1c0.4058,0 0.75515,-0.24172 0.91192,-0.58902c0.05723,0.18617 0.08808,0.384 0.08808,0.58902c0,1.10457 -0.89543,2 -2,2c-1.10457,0 -2,-0.89543 -2,-2c0,-1.10457 0.89543,-2 2,-2z" vector-effect="non-scaling-stroke"/></defs></g></svg>
